<?xml version="1.0" standalone="no"?>
<!DOCTYPE svg PUBLIC "-//W3C//DTD SVG 20010904//EN"
 "http://www.w3.org/TR/2001/REC-SVG-20010904/DTD/svg10.dtd">
<svg version="1.0" xmlns="http://www.w3.org/2000/svg"
 width="550.000000pt" height="550.000000pt" viewBox="0 0 550.000000 550.000000"
 preserveAspectRatio="xMidYMid meet">

<g transform="translate(0.000000,550.000000) scale(0.100000,-0.100000)"
fill="#000000" stroke="none">
<path d="M2490 5123 c-99 -4 -364 -32 -465 -48 -49 -8 -144 -21 -210 -30 -155
-21 -327 -66 -411 -107 -36 -18 -92 -55 -123 -83 -32 -27 -92 -74 -134 -103
-92 -62 -128 -109 -156 -201 -25 -82 -21 -110 27 -206 85 -169 253 -255 592
-302 152 -21 658 -22 1255 -2 209 7 551 13 760 14 344 1 391 3 498 23 130 24
256 63 296 91 14 10 42 22 61 26 45 9 81 28 101 51 28 33 59 125 59 174 0 42
-4 52 -34 78 -19 16 -52 40 -75 52 -27 16 -44 34 -51 56 -38 113 -316 248
-730 353 -517 131 -897 181 -1260 164z m955 -248 c121 -21 129 -26 122 -82 -2
-25 -10 -50 -15 -55 -8 -8 -53 -6 -157 6 -153 19 -177 19 -500 -10 -93 -9
-321 -19 -505 -24 -308 -8 -344 -10 -445 -34 -60 -14 -120 -26 -132 -26 -30 0
-53 26 -53 60 0 29 13 38 90 59 27 7 19 8 -37 4 -69 -6 -73 -5 -73 14 0 18 10
23 63 32 84 15 288 28 757 46 217 9 418 17 445 18 158 10 360 6 440 -8z m234
-386 c36 -6 74 -16 84 -21 20 -10 23 -54 6 -91 l-11 -24 -221 0 c-193 0 -270
-5 -592 -42 -303 -33 -405 -41 -560 -41 -104 0 -287 -7 -405 -15 -315 -21
-336 -21 -365 11 -16 18 -25 39 -25 60 0 42 -5 41 225 50 346 13 390 22 88 17
l-303 -5 0 24 0 25 242 6 c133 4 419 7 636 7 329 0 422 3 565 20 221 25 233
26 416 28 85 1 184 -3 220 -9z"/>
<path d="M1155 3973 c-87 -20 -97 -25 -107 -54 -8 -23 -14 -28 -30 -23 -42 13
-342 5 -422 -11 -164 -34 -192 -60 -156 -143 12 -26 17 -48 12 -50 -51 -17
-98 -51 -107 -77 -5 -16 -15 -34 -22 -38 -17 -10 -17 -42 0 -55 7 -6 23 -9 35
-5 16 4 22 1 22 -10 0 -25 71 -76 135 -98 l60 -20 -90 6 c-49 4 -110 11 -135
16 -83 19 -113 -9 -70 -64 35 -45 81 -48 655 -43 497 4 675 11 1333 51 134 8
250 15 257 15 10 0 -2 -32 -36 -97 -27 -54 -64 -137 -82 -184 l-32 -86 3 147
c4 145 3 148 -19 164 -27 19 -41 20 -90 6 -34 -9 -37 -14 -43 -54 -7 -43 -9
-45 -47 -51 -23 -4 -55 -20 -74 -36 l-33 -30 -41 22 c-60 31 -126 12 -204 -58
-21 -19 -44 -32 -50 -30 -6 2 -20 30 -29 63 -21 70 -55 104 -103 104 -51 0
-83 -16 -106 -52 -18 -29 -19 -43 -14 -113 15 -199 67 -461 107 -539 19 -37
19 -38 1 -31 -100 42 -154 44 -194 4 -24 -24 -19 -47 33 -152 22 -44 38 -88
36 -100 -2 -12 -22 -30 -53 -47 -28 -15 -56 -39 -63 -54 -13 -25 -11 -33 17
-91 22 -44 49 -79 86 -111 51 -43 55 -49 55 -91 0 -51 28 -112 61 -132 21 -12
25 -11 45 12 19 22 24 24 40 12 17 -12 13 -25 -81 -216 -96 -198 -109 -238
-91 -284 4 -11 9 -38 10 -60 3 -66 84 -184 128 -185 9 0 27 13 41 30 22 25 27
27 37 15 22 -27 45 -17 68 30 12 25 22 53 22 63 1 49 40 51 60 2 15 -37 66
-82 88 -78 9 2 30 28 45 58 15 30 31 56 36 58 47 16 60 -272 21 -461 -15 -74
-12 -110 14 -160 22 -40 24 -54 19 -121 -6 -73 -4 -79 31 -148 23 -48 48 -81
70 -96 54 -37 70 -22 125 111 7 17 11 94 11 200 0 95 3 182 6 193 5 20 10 19
126 -33 66 -30 153 -63 193 -73 157 -40 477 -35 562 8 78 41 113 110 113 225
0 158 -39 206 -208 262 -84 27 -99 70 -73 197 13 62 24 71 91 70 41 -1 144
-25 205 -48 58 -22 103 -69 245 -259 167 -223 250 -318 293 -338 45 -22 174
-23 243 -2 103 30 278 154 365 259 102 121 189 323 189 437 0 67 -7 78 -64
105 -62 29 -127 31 -218 6 -64 -18 -219 -98 -258 -134 -17 -16 -20 -15 -61 30
-23 26 -102 109 -176 185 -73 75 -133 141 -133 146 0 5 -62 60 -137 124 -76
63 -155 132 -176 154 l-37 39 62 50 63 50 70 -53 c109 -83 197 -103 334 -79
103 18 175 52 246 118 136 124 224 407 198 636 l-9 84 78 86 c98 110 131 173
136 268 4 68 3 72 -23 92 -46 37 -204 28 -205 -11 0 -7 -22 -36 -48 -65 l-47
-53 -42 58 c-38 51 -41 59 -27 74 18 20 16 22 -81 79 l-70 41 45 -6 c42 -6 44
-5 26 9 -11 9 -18 17 -15 19 8 7 187 27 238 27 40 0 51 -3 51 -16 0 -12 5 -14
18 -8 104 45 139 51 339 53 187 2 199 3 220 23 13 12 28 39 35 60 6 21 17 38
25 38 40 0 158 35 174 51 26 26 24 64 -6 87 -14 11 -58 28 -97 37 -40 10 -77
24 -81 31 -15 27 -68 45 -184 64 -306 51 -728 65 -1613 54 -818 -11 -1607 -12
-1880 -3 -107 4 -204 5 -215 2z m3345 -153 c0 -15 -7 -20 -27 -21 -22 0 -18
-3 17 -12 30 -8 46 -18 48 -31 4 -17 -1 -18 -65 -12 -37 4 -84 9 -103 12 -29
4 -37 1 -45 -18 -11 -25 -40 -36 -103 -37 -35 -1 -45 -5 -49 -21 -5 -18 -14
-20 -99 -20 -78 0 -94 -3 -94 -15 0 -38 -30 -40 -800 -40 -654 0 -764 -3 -904
-19 -87 -10 -176 -16 -197 -14 -22 2 -39 0 -39 -4 0 -5 -40 -8 -89 -8 -49 0
-91 -4 -93 -9 -2 -5 -40 -12 -85 -16 -81 -7 -83 -6 -92 16 -7 18 -10 19 -10 7
-1 -22 -41 -25 -41 -3 0 8 -4 15 -10 15 -5 0 -10 -7 -10 -15 0 -11 -12 -15
-50 -15 -38 0 -50 4 -50 15 0 10 10 15 29 15 21 0 30 6 34 22 6 21 8 21 156
15 129 -5 151 -4 151 8 0 13 33 15 210 15 186 0 210 2 210 16 0 13 9 15 50 12
28 -1 50 0 50 5 0 4 30 8 68 8 37 1 59 3 48 6 -10 3 -93 0 -185 -7 -91 -7
-268 -14 -393 -16 -195 -3 -228 -1 -228 11 0 11 -13 15 -50 15 -35 0 -50 4
-50 14 0 10 43 16 187 27 167 12 180 14 118 20 -84 7 -115 16 -115 33 0 10 32
15 128 20 321 15 811 28 955 25 86 -2 157 -1 157 3 0 5 128 8 285 8 198 0 285
-3 285 -11 0 -7 53 -9 178 -4 99 4 206 2 242 -3 36 -5 67 -7 70 -3 3 3 81 7
174 8 98 2 174 7 180 13 18 18 46 12 46 -10z m640 -77 c16 -7 -67 -30 -112
-32 -27 -1 -27 -1 -11 27 16 28 18 28 62 20 25 -5 53 -12 61 -15z m-3880 -92
l0 -38 -92 -6 c-51 -4 -186 -10 -300 -14 -206 -6 -208 -6 -208 14 0 18 8 22
58 27 31 3 116 7 187 8 105 2 133 6 145 20 19 20 45 25 138 27 l72 1 0 -39z
m230 -76 c0 -8 -4 -15 -10 -15 -5 0 -10 -7 -10 -15 0 -11 -11 -15 -39 -15 -22
0 -41 4 -43 9 -5 15 -88 1 -88 -15 0 -8 -11 -14 -25 -14 -15 0 -25 6 -25 14 0
14 -29 26 -67 26 -22 0 -31 19 -16 33 3 4 78 7 165 7 134 0 158 -2 158 -15z
m1250 -18 c0 -54 -52 -71 -270 -86 -261 -19 -620 -11 -620 14 0 9 82 14 323
18 379 8 537 28 537 67 0 6 7 10 15 10 9 0 15 -9 15 -23z m-1562 -19 c56 -12
70 -34 25 -41 -16 -2 119 -5 300 -6 283 -1 327 -3 327 -16 0 -18 40 -17 -440
-15 -368 1 -600 10 -677 26 -24 5 -33 12 -33 27 0 17 4 19 33 13 48 -11 204
-25 269 -26 52 0 56 1 51 21 -11 41 17 44 145 17z m2590 -117 c10 -10 46 -26
82 -35 36 -10 106 -37 155 -60 101 -47 139 -88 193 -202 26 -57 27 -65 27
-224 0 -145 -3 -174 -24 -240 -43 -138 -89 -204 -175 -247 -44 -22 -59 -25
-113 -20 -35 4 -78 13 -97 22 l-33 16 -6 102 c-4 56 -11 117 -16 136 -6 19
-13 53 -16 75 -18 124 -50 275 -65 306 -10 20 -29 42 -43 49 l-25 13 24 36
c80 118 44 212 -81 212 -28 0 -60 -6 -70 -14 -18 -13 -18 -14 1 -47 17 -29 26
-34 62 -37 49 -4 52 -13 16 -65 -30 -45 -57 -57 -128 -57 -114 0 -183 -40
-216 -125 -17 -44 -100 -316 -100 -328 0 -6 -12 -40 -27 -76 -24 -57 -27 -79
-27 -161 2 -120 20 -187 87 -310 60 -110 140 -195 238 -252 41 -24 108 -82
183 -158 86 -87 125 -120 140 -118 14 2 54 -33 145 -128 69 -71 149 -159 176
-193 90 -115 101 -125 119 -118 10 4 20 16 23 27 6 24 26 26 43 5 21 -25 51
-17 160 45 115 66 146 74 134 38 -44 -144 -225 -347 -375 -423 -53 -27 -124
-33 -177 -14 -34 12 -130 124 -304 354 -139 184 -184 225 -311 285 -174 82
-251 96 -356 64 -30 -8 -64 -27 -78 -42 -62 -67 -117 -229 -111 -326 7 -116
101 -262 193 -301 17 -7 65 -19 107 -25 43 -7 82 -18 87 -24 4 -6 11 -27 14
-48 8 -52 -15 -69 -101 -76 -89 -6 -315 14 -384 34 -49 15 -194 85 -282 136
-32 19 -41 31 -50 68 -10 38 -8 59 13 140 21 82 24 121 26 292 1 115 6 203 12
210 10 12 25 121 38 269 7 78 34 185 64 252 30 70 28 113 -6 130 -29 14 -44
13 -100 -4 -20 -6 -33 -18 -37 -34 -9 -34 -121 -172 -159 -195 -18 -11 -34
-30 -37 -42 -3 -13 -15 -25 -25 -27 -20 -3 -20 -3 0 19 l20 23 -25 -13 c-14
-7 -74 -44 -133 -82 -93 -59 -111 -67 -129 -57 -12 6 -41 9 -67 6 -41 -5 -52
-2 -98 30 -44 29 -53 40 -53 65 0 39 -23 86 -66 136 -22 27 -30 43 -23 48 20
12 59 108 59 144 0 19 -4 49 -9 67 -16 57 11 27 69 -75 66 -115 168 -226 218
-237 74 -16 248 106 419 293 54 58 117 126 140 150 51 51 84 119 91 186 4 39
1 51 -13 58 -20 12 -16 57 15 175 22 82 59 145 209 361 85 122 110 152 129
152 13 0 20 -4 17 -10 -4 -6 21 -10 68 -10 41 0 94 -3 118 -6 36 -5 50 -2 80
19 42 29 91 36 294 43 82 3 152 8 154 10 2 2 24 4 49 4 30 0 49 -6 60 -19z
m756 -198 c-10 -42 -41 -83 -98 -130 -46 -38 -52 -41 -63 -26 -20 26 -17 36
44 112 50 63 60 71 90 71 31 0 33 -2 27 -27z m-2795 -125 c17 -132 41 -431 41
-513 0 -96 -6 -112 -42 -119 -17 -3 -32 -5 -34 -4 -1 2 -12 72 -24 157 -12 84
-36 205 -52 270 -42 160 -43 170 -24 177 9 3 16 17 16 31 0 20 4 24 22 21 17
-2 29 -17 46 -58 26 -62 25 -70 6 78 -6 48 -5 52 13 52 18 0 22 -11 32 -92z
m577 45 c-3 -16 -11 -71 -16 -123 -27 -249 -97 -590 -121 -590 -5 0 -9 -9 -9
-20 0 -11 -7 -20 -15 -20 -8 0 -15 7 -15 16 0 13 -8 9 -29 -14 -28 -29 -35
-31 -130 -37 -55 -4 -111 -5 -124 -1 -30 7 -66 80 -51 104 12 19 127 48 228
57 l74 7 30 192 c17 105 36 232 43 281 7 53 18 93 26 98 7 4 13 17 13 27 0 14
7 20 24 20 13 0 26 7 30 15 3 8 15 15 26 15 18 0 21 -4 16 -27z m-241 -335
c30 -14 33 -54 7 -108 -15 -30 -23 -36 -67 -43 -57 -10 -143 -1 -165 16 -51
39 -65 105 -28 131 27 20 213 22 253 4z m259 -75 c-4 -27 -11 -52 -16 -58 -9
-9 -4 42 9 88 9 33 13 17 7 -30z m1128 -172 c-19 -41 -132 -154 -132 -131 0
18 47 105 76 140 27 32 66 54 72 40 1 -3 -6 -26 -16 -49z m6 -227 c13 -26 22
-47 20 -48 -69 -44 -109 -68 -112 -65 -2 2 -10 24 -18 48 l-14 45 40 32 c23
18 46 33 52 33 5 1 20 -20 32 -45z m-1248 -460 c0 -14 7 -32 15 -40 13 -13 15
-80 15 -473 0 -252 3 -486 6 -520 6 -52 5 -61 -9 -61 -9 0 -19 10 -22 23 -15
68 -25 163 -25 250 0 83 -2 97 -16 97 -15 0 -16 26 -13 268 5 288 6 290 -26
-35 -5 -45 -11 -63 -21 -63 -20 0 -18 90 7 317 17 160 23 190 40 202 10 7 19
24 19 37 0 15 6 24 15 24 9 0 15 -10 15 -26z m-127 -159 c17 -16 31 -80 22
-95 -14 -23 -159 -112 -190 -117 -33 -5 -55 9 -80 51 -8 13 -21 -14 -62 -133
-29 -82 -53 -157 -53 -165 0 -9 -7 -16 -15 -16 -10 0 -15 10 -15 28 0 19 -3
23 -9 14 -5 -8 -17 -12 -27 -10 -27 6 -22 44 21 141 20 45 50 128 67 185 26
85 34 102 51 102 17 0 19 -5 14 -37 l-5 -38 13 30 c8 17 14 36 15 43 0 21 30
13 30 -8 0 -23 4 -24 33 -8 39 21 122 47 149 48 15 0 33 -7 41 -15z"/>
<path d="M3170 3780 c0 -6 -64 -11 -167 -12 -135 -1 -153 -2 -89 -8 57 -4 82
-11 91 -23 7 -9 19 -17 28 -17 8 0 17 -5 19 -11 2 -7 71 -6 228 5 124 8 335
20 470 27 135 6 252 15 260 20 8 5 -120 9 -287 9 -195 0 -303 4 -303 10 0 6
-48 10 -125 10 -77 0 -125 -4 -125 -10z"/>
<path d="M4066 3756 c7 -19 48 -22 42 -3 -3 6 -14 13 -26 15 -16 3 -20 -1 -16
-12z"/>
<path d="M2518 3753 c18 -4 22 -11 22 -38 l0 -34 80 6 c57 4 80 3 80 -6 0 -6
7 -11 15 -11 8 0 15 -7 15 -16 0 -12 6 -15 23 -10 12 3 25 6 30 6 4 0 7 7 7
15 0 11 -11 15 -40 15 -26 0 -40 5 -40 13 0 9 -18 12 -70 9 -57 -4 -70 -1 -70
10 0 11 17 17 61 22 114 11 102 25 -21 24 -63 0 -105 -3 -92 -5z"/>
<path d="M4223 3753 c9 -2 25 -2 35 0 9 3 1 5 -18 5 -19 0 -27 -2 -17 -5z"/>
<path d="M4163 3743 c9 -2 23 -2 30 0 6 3 -1 5 -18 5 -16 0 -22 -2 -12 -5z"/>
<path d="M2025 3704 l-120 -12 140 5 c77 3 201 9 275 13 l135 7 -155 0 c-85 0
-209 -6 -275 -13z"/>
<path d="M2868 3713 c7 -3 16 -2 19 1 4 3 -2 6 -13 5 -11 0 -14 -3 -6 -6z"/>
<path d="M1748 3683 c12 -2 30 -2 40 0 9 3 -1 5 -23 4 -22 0 -30 -2 -17 -4z"/>
<path d="M2927 3683 c-4 -3 -7 -12 -7 -19 0 -10 15 -13 53 -12 28 1 174 -2
322 -6 157 -4 331 -3 415 3 l145 10 -162 -4 c-156 -4 -163 -3 -163 16 0 12 -7
19 -20 19 -11 0 -20 -7 -20 -15 0 -12 -14 -15 -70 -15 -46 0 -70 4 -70 11 0
12 -75 9 -262 -8 -59 -5 -68 -4 -68 11 0 12 -10 16 -43 16 -24 0 -47 -3 -50
-7z"/>
<path d="M2580 3650 c-53 -6 -52 -7 28 -8 49 -1 82 2 82 8 0 11 -23 11 -110 0z"/>
<path d="M3930 3184 c-37 -8 -63 -22 -79 -40 -21 -25 -23 -35 -19 -96 5 -67
40 -159 77 -202 34 -39 102 -78 126 -72 24 6 85 103 85 136 0 9 5 21 12 28 13
13 24 158 14 196 -8 32 -75 66 -125 65 -20 -1 -61 -7 -91 -15z"/>
<path d="M1661 2965 c-1 -11 6 -65 15 -120 8 -55 22 -154 29 -219 8 -66 18
-122 21 -125 13 -12 -5 228 -26 332 -22 115 -38 169 -39 132z"/>
<path d="M2242 3055 c0 -16 2 -22 5 -12 2 9 2 23 0 30 -3 6 -5 -1 -5 -18z"/>
</g>
</svg>
